<svg width="72" height="72" viewBox="0 0 72 72" fill="none" xmlns="http://www.w3.org/2000/svg">
<path d="M37.1321 2.24992C28.2332 2.24992 21.0422 9.44092 21.0422 18.3398C21.0422 19.2387 21.7613 19.9578 22.6602 19.9578C23.5591 19.9578 25.501 19.1097 25.501 18.2109C25.501 11.1097 30.031 6.81018 37.1321 6.81018C44.2332 6.81018 48.8723 11.2387 48.8723 18.3398C48.8723 19.2387 50.7051 19.9578 51.604 19.9578C52.5029 19.9578 53.222 19.2387 53.222 18.3398C53.222 9.44092 46.031 2.24992 37.1321 2.24992Z" fill="#FF7629"/>
<path d="M63 69.5139L59.3342 19.0673C59.1544 17.8089 58.2556 16.91 57.087 16.91H17.177C16.0084 16.91 15.1095 17.8089 14.9298 19.0673L11.25 69.5139H63Z" fill="#FF7629"/>
<path d="M51.5591 36.8329C51.5591 33.7369 49.0541 31.2268 45.9643 31.2268C44.8975 31.2268 43.9098 31.5277 43.0642 32.0424C41.7446 30.5538 39.8243 29.6115 37.6749 29.6115C35.5334 29.6115 33.6053 30.5538 32.2856 32.0424C31.4401 31.5277 30.4523 31.2268 29.3855 31.2268C26.2958 31.2268 23.7908 33.7369 23.7908 36.8329C23.7908 39.2162 25.2764 41.2433 27.3626 42.0509C27.3626 46.4772 27.3112 45.6894 27.3112 50.1156C34.0992 48.5953 41.1321 48.5953 47.9201 50.1156C47.9201 45.6894 47.9715 46.4772 47.9715 42.0509C50.0735 41.2433 51.5591 39.2162 51.5591 36.8329Z" fill="white"/>
<path d="M47.9866 51.6716V55.6861C41.1986 54.1658 34.1578 54.1658 27.3777 55.6861V51.6716C34.1657 50.1513 41.1986 50.1513 47.9866 51.6716Z" fill="white"/>
<path d="M29.4893 42.8167C29.5382 42.9134 29.5926 43.0102 29.6579 43.0973C29.7178 43.1843 29.7885 43.2714 29.8592 43.3537C29.93 43.4359 30.0116 43.5133 30.0932 43.5859C30.1748 43.6585 30.2673 43.7262 30.3598 43.7891C30.4523 43.8472 30.5502 43.9052 30.6536 43.9584C30.757 44.0068 30.8549 44.0552 30.9637 44.0891C31.0671 44.1278 31.1814 44.1568 31.2902 44.1858C31.399 44.2149 31.5132 44.2294 31.6275 44.2439C31.7418 44.2536 31.856 44.2632 31.9648 44.2632C32.0192 44.2632 32.0791 44.2632 32.1389 44.2584C32.1933 44.2536 32.2478 44.2487 32.3076 44.2439C32.5307 44.2149 32.7483 44.1616 32.9551 44.0891C33.0584 44.0504 33.1564 44.0068 33.2543 43.9584C33.3468 43.9101 33.4502 43.852 33.5481 43.7939L34.152 43.4504L34.2826 43.373L34.3914 43.4795L34.7451 43.823C34.8594 43.9342 34.9791 44.0552 35.0933 44.1616C35.213 44.2778 35.3273 44.36 35.4578 44.4568C35.5884 44.5438 35.7244 44.6309 35.8659 44.7035C36.4263 45.0083 37.0847 45.168 37.743 45.1631C37.8137 45.1583 37.9171 45.1631 37.9933 45.1534C38.0694 45.1486 38.1511 45.1438 38.2327 45.1341C38.3959 45.1147 38.5537 45.0857 38.7169 45.047C39.0325 44.9696 39.3372 44.8535 39.6201 44.7035C39.903 44.5535 40.1642 44.3745 40.3927 44.1616C40.5069 44.0552 40.6266 43.9342 40.7409 43.823L41.0945 43.4795L41.2034 43.373L41.3339 43.4504L41.9379 43.7939C42.0413 43.852 42.1392 43.9101 42.2371 43.9584C42.3296 44.0068 42.433 44.0504 42.5364 44.0891C42.7431 44.1665 42.9608 44.2197 43.1838 44.2439C43.2926 44.2584 43.4123 44.2681 43.5212 44.2632C43.6463 44.2632 43.7497 44.2536 43.8639 44.2487C43.9782 44.2342 44.087 44.2149 44.2013 44.1907C44.3101 44.1665 44.4243 44.1374 44.5277 44.0939C44.6365 44.06 44.7399 44.0117 44.8378 43.9633C44.9412 43.9149 45.0337 43.8568 45.1316 43.7939C45.2241 43.731 45.3112 43.6633 45.3982 43.5907C45.4799 43.5182 45.5615 43.4408 45.6322 43.3585C45.7084 43.2763 45.7737 43.1892 45.8335 43.1021C45.8988 43.015 45.9478 42.9183 46.0022 42.8215C45.9641 42.9231 45.9206 43.0199 45.8716 43.1166C45.8172 43.2134 45.7628 43.3101 45.6975 43.3972C45.6322 43.4891 45.556 43.5714 45.4799 43.6536C45.4037 43.7359 45.3112 43.8133 45.2241 43.8859C45.1316 43.9584 45.0337 44.0262 44.9358 44.0842C44.8324 44.1423 44.729 44.2003 44.6148 44.2487C44.5059 44.3019 44.3917 44.3406 44.272 44.3745C44.1523 44.4132 44.0326 44.4374 43.9129 44.4568C43.7878 44.4761 43.6572 44.4906 43.5429 44.4955C43.4178 44.5051 43.2926 44.5003 43.1675 44.4955C42.9172 44.481 42.6669 44.4326 42.433 44.3552C42.3133 44.3165 42.199 44.2729 42.0848 44.2197C41.976 44.1665 41.8726 44.1133 41.7692 44.06L41.1544 43.7407L41.3992 43.7069L41.0565 44.06C40.9422 44.1762 40.8334 44.2923 40.7082 44.4132C40.5885 44.5342 40.4525 44.6454 40.3111 44.7519C40.1696 44.8535 40.0227 44.9551 39.8649 45.0373C39.5548 45.2115 39.212 45.3421 38.8584 45.4341C38.6788 45.4776 38.4993 45.5163 38.3197 45.5357C38.2272 45.5502 38.1347 45.555 38.0422 45.5647C37.9443 45.5744 37.8736 45.5695 37.7702 45.5744C37.0302 45.5695 36.2957 45.3857 35.67 45.0422C35.5123 44.9599 35.3654 44.8583 35.2239 44.7567C35.0879 44.6551 34.941 44.5342 34.8267 44.4181C34.7016 44.2971 34.5982 44.181 34.4785 44.0649L34.1357 43.7117L34.3806 43.7456L33.7603 44.0649C33.6569 44.1181 33.559 44.1713 33.4447 44.2245C33.3305 44.2778 33.2162 44.3213 33.0965 44.36C32.8626 44.4374 32.6123 44.4858 32.362 44.5003C32.3022 44.5051 32.2369 44.5051 32.1716 44.51C32.1117 44.51 32.0519 44.51 31.9866 44.5051C31.8615 44.5003 31.7363 44.4858 31.6166 44.4664C31.4969 44.4422 31.3718 44.4181 31.2575 44.3842C31.1433 44.3455 31.0236 44.3068 30.9148 44.2584C30.8059 44.21 30.6971 44.152 30.5937 44.0939C30.4904 44.031 30.3979 43.9633 30.3054 43.8955C30.2183 43.823 30.1258 43.7456 30.0497 43.6633C29.9735 43.5811 29.8973 43.4988 29.832 43.4069C29.7613 43.3198 29.7069 43.2231 29.6579 43.1263C29.5709 43.0199 29.5273 42.9183 29.4893 42.8167Z" fill="#FF7629"/>
</svg>
